<svg xmlns="http://www.w3.org/2000/svg" xmlns:xlink="http://www.w3.org/1999/xlink" width="150" height="150" viewBox="0 0 150 150">
  <defs>
    <clipPath id="clip-donate">
      <rect width="150" height="150"/>
    </clipPath>
  </defs>
  <g id="donate" clip-path="url(#clip-donate)">
    <path id="Icon_awesome-donate" data-name="Icon awesome-donate" d="M42.319,68.769A34.384,34.384,0,1,0,7.935,34.384,34.379,34.379,0,0,0,42.319,68.769ZM38.649,16.1V13.324a2.737,2.737,0,0,1,2.744-2.744h1.835a2.737,2.737,0,0,1,2.744,2.744v2.81a13.033,13.033,0,0,1,7.108,2.546,1.854,1.854,0,0,1,.2,2.827l-2.695,2.562a1.864,1.864,0,0,1-2.314.165,5.441,5.441,0,0,0-2.943-.843H38.9A2.875,2.875,0,0,0,36.2,26.417a2.987,2.987,0,0,0,2,2.909l10.3,3.091a10.356,10.356,0,0,1,7.224,9.935,10.193,10.193,0,0,1-9.77,10.315v2.777a2.737,2.737,0,0,1-2.744,2.744H41.377a2.737,2.737,0,0,1-2.744-2.744v-2.81a13.033,13.033,0,0,1-7.108-2.546,1.854,1.854,0,0,1-.2-2.827L34.021,44.7a1.864,1.864,0,0,1,2.314-.165,5.441,5.441,0,0,0,2.943.843h6.431A2.875,2.875,0,0,0,48.4,42.352a2.987,2.987,0,0,0-2-2.909L36.1,36.352a10.356,10.356,0,0,1-7.224-9.935A10.2,10.2,0,0,1,38.649,16.1Zm40.7,42.088H73.976a40.065,40.065,0,0,1-12.068,10.58H72.455a1.475,1.475,0,0,1,1.587,1.322v2.645a1.475,1.475,0,0,1-1.587,1.322H12.167a1.475,1.475,0,0,1-1.587-1.322V70.091a1.475,1.475,0,0,1,1.587-1.322H22.714a40.264,40.264,0,0,1-12.068-10.58H5.29A5.284,5.284,0,0,0,0,63.479v15.87a5.284,5.284,0,0,0,5.29,5.29H79.349a5.284,5.284,0,0,0,5.29-5.29V63.479A5.284,5.284,0,0,0,79.349,58.189Z" transform="translate(33 33.115)" fill="#fff"/>
  </g>
</svg>
