<svg xmlns="http://www.w3.org/2000/svg" xmlns:xlink="http://www.w3.org/1999/xlink" width="150" height="150" viewBox="0 0 150 150">
  <defs>
    <clipPath id="clip-patch_note">
      <rect width="150" height="150"/>
    </clipPath>
  </defs>
  <g id="patch_note" data-name="patch note" clip-path="url(#clip-patch_note)">
    <path id="Icon_awesome-balance-scale" data-name="Icon awesome-balance-scale" d="M43.246,56.76h0c0-2.733.226-1.475-14.368-30.662a8.115,8.115,0,0,0-14.506,0C-.348,55.536,0,54.113,0,56.76H0c0,7.463,9.681,13.514,21.623,13.514S43.246,64.224,43.246,56.76ZM21.623,29.732,33.786,54.058H9.46ZM108.112,56.76c0-2.733.226-1.475-14.368-30.662a8.115,8.115,0,0,0-14.506,0C64.521,55.536,64.873,54.113,64.873,56.76h0c0,7.463,9.681,13.514,21.623,13.514s21.623-6.051,21.623-13.514Zm-33.783-2.7L86.492,29.732,98.655,54.058ZM89.2,75.681H59.463V25.889A13.525,13.525,0,0,0,67.3,16.217H89.2a2.7,2.7,0,0,0,2.7-2.7V8.109a2.7,2.7,0,0,0-2.7-2.7H64.808a13.393,13.393,0,0,0-21.5,0H18.92a2.7,2.7,0,0,0-2.7,2.7v5.406a2.7,2.7,0,0,0,2.7,2.7h21.9a13.524,13.524,0,0,0,7.837,9.671V75.681H18.92a2.7,2.7,0,0,0-2.7,2.7v5.406a2.7,2.7,0,0,0,2.7,2.7H89.2a2.7,2.7,0,0,0,2.7-2.7V78.384A2.7,2.7,0,0,0,89.2,75.681Z" transform="translate(21.085 31.383)" fill="#fff"/>
  </g>
</svg>
